<svg id="visual" viewBox="0 0 960 540" width="960" height="540" xmlns="http://www.w3.org/2000/svg" xmlns:xlink="http://www.w3.org/1999/xlink" version="1.1"><g fill="none" stroke="#000000" stroke-width="2"><circle r="11" cx="858" cy="480"></circle><circle r="0" cx="871" cy="126"></circle><circle r="8" cx="305" cy="528"></circle><circle r="8" cx="466" cy="8"></circle><circle r="6" cx="671" cy="490"></circle><circle r="0" cx="490" cy="470"></circle><circle r="8" cx="49" cy="134"></circle><circle r="6" cx="808" cy="378"></circle><circle r="7" cx="437" cy="3"></circle><circle r="-1" cx="390" cy="296"></circle><circle r="-1" cx="417" cy="235"></circle><circle r="3" cx="638" cy="377"></circle><circle r="7" cx="918" cy="509"></circle><circle r="4" cx="669" cy="538"></circle><circle r="-1" cx="295" cy="100"></circle><circle r="0" cx="40" cy="460"></circle><circle r="3" cx="694" cy="413"></circle><circle r="9" cx="821" cy="205"></circle><circle r="-1" cx="200" cy="86"></circle><circle r="0" cx="796" cy="39"></circle><circle r="7" cx="446" cy="483"></circle><circle r="3" cx="540" cy="478"></circle><circle r="8" cx="885" cy="16"></circle><circle r="1" cx="588" cy="473"></circle><circle r="4" cx="880" cy="255"></circle><circle r="4" cx="22" cy="300"></circle><circle r="2" cx="833" cy="449"></circle><circle r="2" cx="480" cy="142"></circle><circle r="-1" cx="167" cy="343"></circle><circle r="-1" cx="363" cy="140"></circle><circle r="9" cx="300" cy="260"></circle><circle r="4" cx="278" cy="139"></circle><circle r="8" cx="750" cy="450"></circle><circle r="3" cx="585" cy="384"></circle><circle r="1" cx="347" cy="227"></circle><circle r="6" cx="103" cy="365"></circle><circle r="6" cx="605" cy="34"></circle><circle r="8" cx="119" cy="29"></circle><circle r="6" cx="522" cy="105"></circle><circle r="-1" cx="654" cy="81"></circle><circle r="4" cx="466" cy="103"></circle><circle r="3" cx="287" cy="443"></circle><circle r="6" cx="224" cy="463"></circle></g></svg>